<svg id="visual" viewBox="0 0 900 600" width="900" height="600" xmlns="http://www.w3.org/2000/svg" xmlns:xlink="http://www.w3.org/1999/xlink" version="1.1"><path d="M467 600L624 600L624 565L824 565L824 529L760 529L760 494L588 494L588 459L688 459L688 424L667 424L667 388L673 388L673 353L676 353L676 318L553 318L553 282L535 282L535 247L293 247L293 212L553 212L553 176L767 176L767 141L568 141L568 106L857 106L857 71L453 71L453 35L636 35L636 0L900 0L900 35L900 35L900 71L900 71L900 106L900 106L900 141L900 141L900 176L900 176L900 212L900 212L900 247L900 247L900 282L900 282L900 318L900 318L900 353L900 353L900 388L900 388L900 424L900 424L900 459L900 459L900 494L900 494L900 529L900 529L900 565L900 565L900 600L900 600Z" fill="#434342"></path><path d="M681 600L597 600L597 565L538 565L538 529L451 529L451 494L392 494L392 459L792 459L792 424L811 424L811 388L511 388L511 353L571 353L571 318L589 318L589 282L865 282L865 247L505 247L505 212L731 212L731 176L400 176L400 141L598 141L598 106L649 106L649 71L447 71L447 35L692 35L692 0L900 0L900 35L900 35L900 71L900 71L900 106L900 106L900 141L900 141L900 176L900 176L900 212L900 212L900 247L900 247L900 282L900 282L900 318L900 318L900 353L900 353L900 388L900 388L900 424L900 424L900 459L900 459L900 494L900 494L900 529L900 529L900 565L900 565L900 600L900 600Z" fill="#333230"></path><path d="M831 600L504 600L504 565L716 565L716 529L815 529L815 494L851 494L851 459L531 459L531 424L535 424L535 388L535 388L535 353L780 353L780 318L690 318L690 282L742 282L742 247L610 247L610 212L686 212L686 176L760 176L760 141L791 141L791 106L596 106L596 71L838 71L838 35L663 35L663 0L900 0L900 35L900 35L900 71L900 71L900 106L900 106L900 141L900 141L900 176L900 176L900 212L900 212L900 247L900 247L900 282L900 282L900 318L900 318L900 353L900 353L900 388L900 388L900 424L900 424L900 459L900 459L900 494L900 494L900 529L900 529L900 565L900 565L900 600L900 600Z" fill="#232220"></path><path d="M837 600L666 600L666 565L838 565L838 529L658 529L658 494L716 494L716 459L637 459L637 424L706 424L706 388L754 388L754 353L882 353L882 318L860 318L860 282L669 282L669 247L845 247L845 212L750 212L750 176L774 176L774 141L664 141L664 106L700 106L700 71L812 71L812 35L836 35L836 0L900 0L900 35L900 35L900 71L900 71L900 106L900 106L900 141L900 141L900 176L900 176L900 212L900 212L900 247L900 247L900 282L900 282L900 318L900 318L900 353L900 353L900 388L900 388L900 424L900 424L900 459L900 459L900 494L900 494L900 529L900 529L900 565L900 565L900 600L900 600Z" fill="#141310"></path></svg>