<svg width="522" height="392" viewBox="0 0 522 392" fill="none" xmlns="http://www.w3.org/2000/svg">
<path d="M374.306 228.625C370.636 195.548 355.836 164.699 332.333 141.136C308.83 117.574 278.019 102.696 244.951 98.9417C211.883 95.1875 178.521 102.78 150.334 120.474C122.147 138.168 100.809 164.914 89.8164 196.326C64.628 198.388 41.2134 210.113 24.4739 229.047C7.73438 247.981 -1.03228 272.656 0.00896457 297.907C1.05021 323.159 11.8186 347.028 30.0601 364.52C48.3017 382.011 72.6021 391.769 97.8748 391.75H375.187C396.819 391.633 417.518 382.928 432.732 367.549C447.945 352.171 456.426 331.379 456.309 309.747C456.193 288.115 447.487 267.416 432.109 252.202C416.73 236.989 395.938 228.508 374.306 228.625V228.625Z" fill="white"/>
<path d="M474.498 253.811C466.776 240.221 456.351 228.357 443.866 218.953C431.381 209.548 417.101 202.803 401.907 199.132C390.322 155.272 362.56 117.425 324.205 93.2026C285.849 68.9799 239.744 60.1779 195.163 68.5667C207.674 45.5273 226.831 26.7881 250.141 14.7883C273.451 2.78854 299.834 -1.91587 325.855 1.28745C351.875 4.49077 376.329 15.4535 396.033 32.7484C415.736 50.0434 429.777 72.8696 436.327 98.2555C455.267 97.2885 473.952 102.952 489.168 114.272C504.384 125.591 515.18 141.859 519.699 160.278C524.217 178.697 522.177 198.114 513.927 215.191C505.677 232.267 491.735 245.936 474.498 253.844V253.811Z" fill="white"/>
</svg>
