<svg id="visual" viewBox="0 0 900 600" width="900" height="600" xmlns="http://www.w3.org/2000/svg" xmlns:xlink="http://www.w3.org/1999/xlink" version="1.1"><path d="M219 600L827 600L827 565L388 565L388 529L545 529L545 494L354 494L354 459L736 459L736 424L495 424L495 388L805 388L805 353L719 353L719 318L438 318L438 282L710 282L710 247L481 247L481 212L608 212L608 176L828 176L828 141L659 141L659 106L252 106L252 71L720 71L720 35L552 35L552 0L900 0L900 35L900 35L900 71L900 71L900 106L900 106L900 141L900 141L900 176L900 176L900 212L900 212L900 247L900 247L900 282L900 282L900 318L900 318L900 353L900 353L900 388L900 388L900 424L900 424L900 459L900 459L900 494L900 494L900 529L900 529L900 565L900 565L900 600L900 600Z" fill="#434342"></path><path d="M780 600L832 600L832 565L552 565L552 529L388 529L388 494L471 494L471 459L518 459L518 424L812 424L812 388L618 388L618 353L453 353L453 318L799 318L799 282L646 282L646 247L698 247L698 212L600 212L600 176L488 176L488 141L407 141L407 106L402 106L402 71L408 71L408 35L689 35L689 0L900 0L900 35L900 35L900 71L900 71L900 106L900 106L900 141L900 141L900 176L900 176L900 212L900 212L900 247L900 247L900 282L900 282L900 318L900 318L900 353L900 353L900 388L900 388L900 424L900 424L900 459L900 459L900 494L900 494L900 529L900 529L900 565L900 565L900 600L900 600Z" fill="#333230"></path><path d="M852 600L616 600L616 565L858 565L858 529L704 529L704 494L825 494L825 459L609 459L609 424L831 424L831 388L605 388L605 353L590 353L590 318L653 318L653 282L840 282L840 247L701 247L701 212L639 212L639 176L797 176L797 141L561 141L561 106L690 106L690 71L679 71L679 35L589 35L589 0L900 0L900 35L900 35L900 71L900 71L900 106L900 106L900 141L900 141L900 176L900 176L900 212L900 212L900 247L900 247L900 282L900 282L900 318L900 318L900 353L900 353L900 388L900 388L900 424L900 424L900 459L900 459L900 494L900 494L900 529L900 529L900 565L900 565L900 600L900 600Z" fill="#232220"></path><path d="M700 600L693 600L693 565L871 565L871 529L840 529L840 494L827 494L827 459L655 459L655 424L768 424L768 388L635 388L635 353L857 353L857 318L791 318L791 282L801 282L801 247L738 247L738 212L758 212L758 176L674 176L674 141L728 141L728 106L804 106L804 71L846 71L846 35L722 35L722 0L900 0L900 35L900 35L900 71L900 71L900 106L900 106L900 141L900 141L900 176L900 176L900 212L900 212L900 247L900 247L900 282L900 282L900 318L900 318L900 353L900 353L900 388L900 388L900 424L900 424L900 459L900 459L900 494L900 494L900 529L900 529L900 565L900 565L900 600L900 600Z" fill="#141310"></path></svg>